<?xml version="1.0" encoding="UTF-8" standalone="no"?>
<!-- Created with Inkscape (http://www.inkscape.org/) -->

<svg
   xmlns:dc="http://purl.org/dc/elements/1.1/"
   xmlns:cc="http://creativecommons.org/ns#"
   xmlns:rdf="http://www.w3.org/1999/02/22-rdf-syntax-ns#"
   xmlns:svg="http://www.w3.org/2000/svg"
   xmlns="http://www.w3.org/2000/svg"
   xmlns:sodipodi="http://sodipodi.sourceforge.net/DTD/sodipodi-0.dtd"
   xmlns:inkscape="http://www.inkscape.org/namespaces/inkscape"
   width="167.95525"
   height="395.71582"
   id="svg1901"
   sodipodi:version="0.32"
   inkscape:version="0.48.4 r9939"
   sodipodi:docname="bunsen-beaker.svg"
   version="1.1"
   inkscape:export-filename="/home/nore/images/bunsen-beaker.png"
   inkscape:export-xdpi="60"
   inkscape:export-ydpi="60">
  <defs
     id="defs1903" />
  <sodipodi:namedview
     id="base"
     pagecolor="#ffffff"
     bordercolor="#666666"
     borderopacity="1.0"
     inkscape:pageopacity="0.0"
     inkscape:pageshadow="2"
     inkscape:zoom="1.4"
     inkscape:cx="352.85225"
     inkscape:cy="76.829892"
     inkscape:document-units="px"
     inkscape:current-layer="layer1"
     inkscape:window-width="1920"
     inkscape:window-height="1078"
     inkscape:window-x="0"
     inkscape:window-y="1"
     showgrid="false"
     inkscape:window-maximized="1"
     fit-margin-top="0"
     fit-margin-left="0"
     fit-margin-right="0"
     fit-margin-bottom="0" />
  <metadata
     id="metadata1906">
    <rdf:RDF>
      <cc:Work
         rdf:about="">
        <dc:format>image/svg+xml</dc:format>
        <dc:type
           rdf:resource="http://purl.org/dc/dcmitype/StillImage" />
        <dc:title></dc:title>
      </cc:Work>
    </rdf:RDF>
  </metadata>
  <g
     inkscape:label="Taso 1"
     inkscape:groupmode="layer"
     id="layer1"
     transform="translate(-373.70953,-479.21931)">
    <g
       style="font-size:144px;font-style:normal;font-variant:normal;font-stretch:normal;text-align:start;line-height:125%;letter-spacing:0px;word-spacing:0px;writing-mode:lr-tb;text-anchor:start;fill:#000000;fill-opacity:1;stroke:none;font-family:Open Sans;-inkscape-font-specification:Open Sans Semi-Light"
       id="text3018"
       transform="matrix(1.7605203,0,0,1.7605203,1050.1802,543.92729)" />
    <rect
       style="fill:#f6bc8e;fill-opacity:1;fill-rule:nonzero;stroke:none"
       id="rect4121"
       width="156.55156"
       height="359.3952"
       x="377.47607"
       y="515.53998" />
    <g
       id="g3080"
       transform="matrix(3.1569163,0,0,3.1569163,-764.25217,-561.66656)">
      <g
         id="g3038">
        <path
           sodipodi:type="arc"
           style="fill:#ffffff;fill-opacity:1;fill-rule:nonzero;stroke:none"
           id="path2993"
           sodipodi:cx="374.00897"
           sodipodi:cy="386.16656"
           sodipodi:rx="12.374369"
           sodipodi:ry="13.637059"
           d="m 386.38334,386.16656 c 0,7.53154 -5.54019,13.63706 -12.37437,13.63706 -6.83417,0 -12.37437,-6.10552 -12.37437,-13.63706 0,-7.53153 5.5402,-13.63705 12.37437,-13.63705 6.83418,0 12.37437,6.10552 12.37437,13.63705 z" />
        <path
           transform="matrix(0.27777777,0,0,0.27777777,269.51432,278.64555)"
           sodipodi:type="arc"
           style="fill:#000000;fill-opacity:1;fill-rule:nonzero;stroke:none"
           id="path2993-4"
           sodipodi:cx="374.00897"
           sodipodi:cy="386.16656"
           sodipodi:rx="12.374369"
           sodipodi:ry="13.637059"
           d="m 386.38334,386.16656 c 0,7.53154 -5.54019,13.63706 -12.37437,13.63706 -6.83417,0 -12.37437,-6.10552 -12.37437,-13.63706 0,-7.53153 5.5402,-13.63705 12.37437,-13.63705 6.83418,0 12.37437,6.10552 12.37437,13.63705 z" />
      </g>
      <g
         transform="translate(0,-1.0216163e-5)"
         id="g3034">
        <path
           transform="translate(25.001282,1.0216163e-5)"
           sodipodi:type="arc"
           style="fill:#ffffff;fill-opacity:1;fill-rule:nonzero;stroke:none"
           id="path2993-9"
           sodipodi:cx="374.00897"
           sodipodi:cy="386.16656"
           sodipodi:rx="12.374369"
           sodipodi:ry="13.637059"
           d="m 386.38334,386.16656 c 0,7.53154 -5.54019,13.63706 -12.37437,13.63706 -6.83417,0 -12.37437,-6.10552 -12.37437,-13.63706 0,-7.53153 5.5402,-13.63705 12.37437,-13.63705 6.83418,0 12.37437,6.10552 12.37437,13.63705 z" />
        <path
           transform="matrix(0.27777777,0,0,0.27777777,294.5156,278.64557)"
           sodipodi:type="arc"
           style="fill:#000000;fill-opacity:1;fill-rule:nonzero;stroke:none"
           id="path2993-4-2"
           sodipodi:cx="374.00897"
           sodipodi:cy="386.16656"
           sodipodi:rx="12.374369"
           sodipodi:ry="13.637059"
           d="m 386.38334,386.16656 c 0,7.53154 -5.54019,13.63706 -12.37437,13.63706 -6.83417,0 -12.37437,-6.10552 -12.37437,-13.63706 0,-7.53153 5.5402,-13.63705 12.37437,-13.63705 6.83418,0 12.37437,6.10552 12.37437,13.63705 z" />
      </g>
    </g>
    <path
       style="fill:none;stroke:#000000;stroke-width:8;stroke-opacity:1;stroke-miterlimit:4;stroke-dasharray:none"
       d="m 498.80928,813.04573 c 0.9728,-3.19784 1.50461,-6.59704 1.50461,-10.05327 0,-22.01525 -21.02766,-39.83734 -46.92948,-39.83734 -25.90172,0 -46.85778,17.82209 -46.85778,39.83734 0,3.45623 0.46002,6.85543 1.43301,10.05327"
       id="path3042-1"
       inkscape:connector-curvature="0"
       sodipodi:nodetypes="csssc" />
    <path
       sodipodi:type="arc"
       style="fill:#fc833c;fill-opacity:1;fill-rule:nonzero;stroke:none"
       id="path3042"
       sodipodi:cx="385.62573"
       sodipodi:cy="410.91531"
       sodipodi:rx="13.889598"
       sodipodi:ry="15.152288"
       d="m 399.51533,410.91531 a 13.889598,15.152288 0 1 1 -27.7792,0 13.889598,15.152288 0 1 1 27.7792,0 z"
       transform="matrix(3.1569163,0,0,3.1569163,-763.14519,-570.08329)" />
    <path
       style="fill:#fc5f10;fill-opacity:1;stroke:none;display:inline"
       d="m 398.90476,479.21931 c -26.60029,17.7242 -30.39131,52.0575 -19.49067,75.88288 -0.37707,-13.51821 0.0589,-23.87073 11.70629,-35.00001 16.64219,14.42247 13.12705,43.78999 6.18,67.8608 13.3251,-16.35251 21.01498,-36.98378 17.94567,-58.65029 1.72995,-3.06483 4.06553,-6.11141 7.30899,-9.21051 16.64215,14.42247 13.127,43.78999 6.17995,67.8608 13.32515,-16.35251 21.01503,-36.98378 17.94568,-58.65029 1.73,-3.06483 4.06552,-6.11141 7.30899,-9.21051 16.64219,14.42247 13.12709,43.78999 6.17999,67.8608 13.32511,-16.35251 21.01498,-36.98378 17.94568,-58.65029 1.72995,-3.06483 4.06552,-6.11141 7.30899,-9.21051 16.64214,14.42247 13.12705,43.78999 6.17995,67.8608 13.32515,-16.35251 21.01503,-36.98378 17.94567,-58.65029 1.73,-3.06483 4.06553,-6.11141 7.309,-9.21051 16.64223,14.42247 13.12709,43.78999 6.18004,67.8608 13.86238,-17.01186 21.63502,-38.64081 17.52967,-61.26485 -2.96585,-16.16463 -11.07517,-24.68359 -15.15281,-34.70292 -1.48674,-4.05963 -1.81847,-9.51575 -0.77252,-12.7759 -11.14474,7.42593 -18.30969,17.80154 -22.0458,29.05776 -3.08924,-5.92081 -6.42863,-10.90639 -8.61629,-16.28186 -1.48675,-4.05963 -1.81847,-9.51575 -0.77253,-12.7759 -11.14134,7.42372 -18.24936,17.8056 -21.98641,29.05776 -3.09268,-5.93132 -6.48514,-10.89927 -8.67573,-16.28186 -1.48674,-4.05963 -1.81847,-9.51575 -0.77252,-12.7759 -11.16256,7.43786 -18.25516,17.84001 -21.98641,29.11714 -3.09933,-5.95186 -6.42,-10.94465 -8.61629,-16.34124 -1.48674,-4.05963 -1.87786,-9.51575 -0.83191,-12.7759 -11.16266,7.43786 -18.25521,17.84001 -21.98646,29.11714 -3.09933,-5.95186 -6.42,-10.94465 -8.61625,-16.34124 -1.48674,-4.05963 -1.87795,-9.51575 -0.83196,-12.7759 z"
       id="path3774"
       inkscape:connector-curvature="0" />
  </g>
</svg>
