<?xml version="1.0" encoding="UTF-8" standalone="no"?>
<!-- Created with Inkscape (http://www.inkscape.org/) -->

<svg
   xmlns:dc="http://purl.org/dc/elements/1.1/"
   xmlns:cc="http://creativecommons.org/ns#"
   xmlns:rdf="http://www.w3.org/1999/02/22-rdf-syntax-ns#"
   xmlns:svg="http://www.w3.org/2000/svg"
   xmlns="http://www.w3.org/2000/svg"
   xmlns:sodipodi="http://sodipodi.sourceforge.net/DTD/sodipodi-0.dtd"
   xmlns:inkscape="http://www.inkscape.org/namespaces/inkscape"
   id="svg2"
   xml:space="preserve"
   viewBox="0 0 186.53395 150"
   version="1.1"
   inkscape:version="0.92.2 2405546, 2018-03-11"
   sodipodi:docname="fortune.svg"
   width="300"
   height="300"><sodipodi:namedview
   pagecolor="#ffffff"
   bordercolor="#666666"
   borderopacity="1"
   objecttolerance="10"
   gridtolerance="10"
   guidetolerance="10"
   inkscape:pageopacity="0"
   inkscape:pageshadow="2"
   inkscape:window-width="1680"
   inkscape:window-height="993"
   id="namedview33"
   showgrid="false"
   inkscape:zoom="1"
   inkscape:cx="-20.066775"
   inkscape:cy="168.27408"
   inkscape:window-x="0"
   inkscape:window-y="32"
   inkscape:window-maximized="1"
   inkscape:current-layer="svg2"
   scale-x="0.5"
   viewbox-width="26.55" />
  <defs
   id="defs6">
    <clipPath
   id="clipPath30">
      <path
   id="path32"
   d="M 22.84,4.287 C 23.055,4.1 23.281,3.912 23.52,3.725 23.547,3.701 23.586,3.674 23.641,3.647 l 0.121,-0.121 1.918,0.402 c 1.465,0.398 2.691,0.934 3.679,1.598 0.133,0.082 0.266,0.175 0.403,0.281 h 0.039 c 0.121,0.098 0.254,0.207 0.398,0.32 l 0.16,0.121 0.161,0.157 c 0.402,0.355 0.816,0.742 1.242,1.16 l 0.16,0.16 C 32.371,7.487 32.895,7.233 33.48,6.967 33,5.365 32.027,4.233 30.559,3.565 29.652,3.139 28.547,2.565 27.238,1.846 26.199,1.26 24.945,0.713 23.48,0.205 23.055,0.045 22.746,-0.021 22.562,0.006 22.242,0.061 21.879,0.26 21.48,0.604 21.055,1.006 20.746,1.287 20.562,1.447 19.945,1.764 19.508,2.018 19.242,2.205 18.789,2.526 18.027,3.221 16.961,4.287 16.586,4.658 16.176,5.155 15.723,5.768 L 14.562,7.287 C 14.32,7.58 13.52,8.432 12.16,9.846 c -0.531,0.691 -0.972,1.187 -1.32,1.48 l -0.801,0.762 c -0.477,0.531 -1.105,1.383 -1.879,2.559 -0.773,1.172 -1.387,2.011 -1.84,2.519 -0.531,0.399 -0.906,0.735 -1.121,1 -0.371,0.668 -0.679,1.149 -0.918,1.442 -0.64,0.691 -1.015,1.093 -1.121,1.199 -0.64,0.48 -1.148,0.879 -1.519,1.199 -0.668,0.559 -1.067,1.027 -1.2,1.399 0.161,0.082 0.387,0.148 0.68,0.203 0.348,0.05 0.586,0.105 0.719,0.16 0.105,0.023 0.254,0.094 0.441,0.199 0.039,-0.055 0.078,-0.105 0.117,-0.16 l 0.403,-0.52 C 2.906,23.1 3.027,22.912 3.16,22.725 c 0.106,-0.16 0.215,-0.32 0.32,-0.477 l 1.54,-2.281 0.14,-0.199 1.399,-2 h 0.043 l 4.117,-5.321 c 0.16,-0.187 0.336,-0.375 0.519,-0.562 h -0.039 l 0.16,-0.16 0.121,-0.117 c 0.172,-0.18 0.348,-0.368 0.52,-0.559 l 0.48,-0.484 c 0.028,0 0.051,-0.012 0.079,-0.039 0.109,-0.106 0.226,-0.211 0.363,-0.321 l 0.68,-0.679 c 0.449,-0.383 0.863,-0.731 1.238,-1.039 0.07,-0.055 0.137,-0.11 0.199,-0.161 0.266,-0.214 0.508,-0.386 0.723,-0.519 0,-0.027 0.011,-0.039 0.039,-0.039 0.238,-0.16 0.504,-0.309 0.801,-0.442 0.586,-0.265 1.304,-0.535 2.16,-0.8 L 20.16,5.967 C 20.211,5.94 20.266,5.912 20.32,5.885 21.121,5.459 21.961,4.928 22.84,4.287 Z"
   inkscape:connector-curvature="0" />
    </clipPath>
    <clipPath
   id="clipPath38">
      <path
   id="path40"
   d="M 0,-0.3 H 42.5 V 30.95 H 0 Z"
   inkscape:connector-curvature="0" />
    </clipPath>
    <radialGradient
   id="radialGradient42"
   gradientUnits="userSpaceOnUse"
   cy="18.6"
   cx="23.700001"
   r="18.212">
      <stop
   id="stop44"
   style="stop-color:#ffffff;stop-opacity:.65881"
   offset="0" />
      <stop
   id="stop46"
   style="stop-color:#ffffff;stop-opacity:.086290"
   offset="1" />
    </radialGradient>
    <mask
   id="mask48">
      <g
   id="g50">
        <g
   id="g52"
   clip-path="url(#clipPath38)">
          <path
   id="path54"
   style="fill:url(#radialGradient42)"
   d="M 0,-0.3 H 42.5 V 30.95 H 0 Z"
   inkscape:connector-curvature="0" />
        </g>
      </g>
    </mask>
    <radialGradient
   id="radialGradient58"
   gradientUnits="userSpaceOnUse"
   cy="18.6"
   cx="23.700001"
   r="18.212">
      <stop
   id="stop60"
   style="stop-color:#000000"
   offset="0" />
      <stop
   id="stop62"
   style="stop-color:#000000"
   offset="1" />
    </radialGradient>
  </defs>
  <g
   id="g10"
   transform="matrix(5.4364567,0,0,-6.209206,-3.0333333e-7,170.4905)">
    <g
   id="g12">
      <path
   id="path14"
   style="fill:#ebe6d8;fill-rule:evenodd"
   d="m 31.922,7.725 -0.16,-0.16 v 0.043 c 0.426,0.453 0.863,0.945 1.316,1.48 l -1.918,1.117 h -4.281 l -0.359,0.043 c 0.027,0.051 0.039,0.145 0.039,0.278 -0.024,0.265 -0.172,0.386 -0.438,0.359 -0.133,0 -0.242,-0.023 -0.32,-0.078 0,0.265 -0.067,0.441 -0.199,0.519 -0.27,0.133 -0.817,0.039 -1.641,-0.281 C 23.719,10.99 22.84,10.604 21.32,9.885 20.227,9.354 19.332,9.151 18.641,9.287 18.16,9.365 17.547,9.631 16.801,10.084 15.84,10.67 15.238,11.018 15,11.127 c -0.746,0.32 -1.602,0.531 -2.562,0.637 -0.934,1.226 -1.68,2.137 -2.239,2.723 -1.039,1.093 -1.933,2.078 -2.679,2.96 l 0.121,-0.042 c 0.371,0.109 0.597,0.187 0.679,0.242 0.211,0.211 0.438,0.547 0.68,1 0.055,-0.082 0.121,-0.16 0.199,-0.242 0.028,-0.051 0.067,-0.106 0.121,-0.161 l 0.039,-0.039 c 0.215,-0.215 0.508,-0.492 0.879,-0.84 0,-0.027 0.067,-0.121 0.2,-0.281 v -0.039 c 0.054,-0.078 0.109,-0.133 0.16,-0.16 0.027,-0.055 0.082,-0.121 0.16,-0.199 -0.028,-0.055 -0.039,-0.121 -0.039,-0.199 0,-0.106 0.027,-0.2 0.082,-0.282 L 9.758,15.924 c 0.054,-0.664 0.203,-1.117 0.441,-1.359 0.215,-0.266 0.774,-0.481 1.68,-0.641 0.293,-0.051 0.559,-0.09 0.801,-0.117 0,-0.055 0.039,-0.121 0.121,-0.203 0.664,-0.719 1.254,-0.879 1.758,-0.477 0.214,0.16 0.226,0.344 0.039,0.559 -0.16,0.215 -0.344,0.238 -0.559,0.078 -0.078,-0.078 -0.199,-0.051 -0.359,0.082 0.027,0.027 0.05,0.039 0.078,0.039 0.347,0.109 0.586,0.242 0.722,0.402 0.399,-0.507 0.665,-0.84 0.797,-1 l -0.039,-0.039 c -0.16,-0.187 -0.25,-0.363 -0.277,-0.523 -0.027,-0.266 0.094,-0.426 0.359,-0.477 0.266,-0.054 0.414,0.039 0.438,0.278 0.082,-0.106 0.148,-0.227 0.203,-0.36 -0.027,0.028 -0.055,0.039 -0.082,0.039 -0.238,0.082 -0.399,-0.011 -0.481,-0.277 -0.078,-0.242 0,-0.402 0.243,-0.481 0.211,-0.054 0.347,-0.132 0.398,-0.242 0.106,-0.215 0.266,-0.32 0.481,-0.32 0.054,-0.211 0.105,-0.438 0.16,-0.68 h 1.078 c 0.187,0 0.535,-0.027 1.043,-0.078 0.453,0 0.785,0.024 1,0.078 l 0.238,0.121 0.238,0.161 c 0.457,0.398 1.094,0.73 1.922,1 0.078,-0.133 0.227,-0.188 0.442,-0.161 0.211,0.028 0.332,0.121 0.359,0.278 l 0.16,-0.039 c 0.238,0 0.387,0.109 0.438,0.32 0.695,0.16 1.523,0.309 2.48,0.441 0.27,0 0.469,0.028 0.602,0.079 0.215,0.054 0.347,0.121 0.398,0.199 0.055,0.054 0.094,0.148 0.121,0.281 0,0.133 0.028,0.242 0.078,0.32 l -4.718,1.403 c -0.637,-0.028 -1.598,0.011 -2.879,0.117 -0.028,0 -0.039,0.015 -0.039,0.043 -0.133,0.211 -0.293,0.238 -0.481,0.078 -0.027,-0.027 -0.055,-0.051 -0.082,-0.078 -0.32,0.027 -0.652,0.051 -1,0.078 -0.027,0.082 -0.066,0.148 -0.117,0.199 -0.453,0.402 -0.723,0.695 -0.801,0.883 v 0.16 c 0.641,0.16 1.547,0.465 2.719,0.918 l 0.281,0.082 c 0.586,-0.535 1.492,-1.016 2.719,-1.441 0.984,-0.348 2.414,-0.719 4.281,-1.121 0.531,-0.106 1,-0.266 1.399,-0.481 C 28.32,13.674 28.133,13.194 28,12.604 c -0.16,-0.637 -0.16,-1.078 0,-1.317 0.133,-0.269 0.531,-0.425 1.199,-0.48 0.641,-0.055 1.215,0 1.719,0.16 v -0.082 c 0.453,-0.266 1.148,-0.426 2.082,-0.48 -0.133,0.054 -0.254,0.109 -0.359,0.16 0.504,-0.239 0.918,-0.321 1.238,-0.239 0.109,0.024 0.199,0.051 0.281,0.079 -0.773,-1.012 -1.519,-1.907 -2.238,-2.68 z m -19.961,8.363 c -0.027,0.024 -0.055,0.039 -0.082,0.039 0.508,0.344 1.199,0.918 2.082,1.719 0.746,0.641 1.25,1.16 1.519,1.559 l -2.921,2.722 c -0.321,-0.133 -0.653,-0.32 -1,-0.562 -0.051,0.027 -0.106,0.043 -0.161,0.043 0.829,0.879 1.614,1.504 2.364,1.879 l 0.597,0.238 c 0.481,-0.477 0.879,-0.945 1.2,-1.399 0.375,-0.586 0.961,-1.293 1.761,-2.121 -0.293,0 -0.8,-0.039 -1.519,-0.117 0,-0.348 -0.149,-0.867 -0.442,-1.562 -0.265,-0.559 -0.32,-1.055 -0.16,-1.481 0.188,-0.426 0.426,-0.746 0.723,-0.957 0.078,-0.055 0.211,-0.094 0.398,-0.121 0,-0.027 0.012,-0.055 0.039,-0.082 0.106,-0.32 0.2,-0.531 0.282,-0.637 0.027,-0.027 0.093,-0.109 0.199,-0.242 -0.16,0.027 -0.332,0.055 -0.52,0.082 l -0.718,0.117 c -0.028,0 -0.137,-0.093 -0.321,-0.277 -0.32,-0.109 -0.519,-0.203 -0.601,-0.281 -0.028,-0.028 -0.055,-0.055 -0.078,-0.082 v 0.121 c 0.023,0.402 -0.442,0.761 -1.403,1.082 -0.054,0.027 -0.172,0.066 -0.359,0.117 0,0.055 -0.012,0.109 -0.039,0.16 -0.028,0.27 -0.16,0.375 -0.403,0.32 -0.183,-0.05 -0.332,-0.144 -0.437,-0.277 z M 25.68,10.205 c 0,-0.078 0.027,-0.172 0.082,-0.277 0.05,-0.16 0.105,-0.402 0.16,-0.723 C 25.973,9.072 26.039,8.967 26.121,8.889 26.094,8.807 26.066,8.729 26.039,8.647 25.934,8.166 25.812,7.78 25.68,7.487 25.465,7.514 25.309,7.58 25.199,7.686 c -0.133,0.133 -0.133,0.508 0,1.121 0.188,0.531 0.336,0.973 0.442,1.32 0,0.028 0.011,0.051 0.039,0.078 z m 5.441,1.403 c -0.242,0.211 -0.668,0.679 -1.281,1.398 -0.215,0.242 -0.426,0.453 -0.641,0.641 0.16,-0.133 0.321,-0.282 0.481,-0.442 1.015,-1.09 1.707,-1.785 2.082,-2.078 z m -17.723,12.918 -0.476,0.359 -1.363,1.043 c -0.426,0.344 -0.692,0.519 -0.797,0.519 C 10.574,26.471 10.281,26.326 9.879,26.006 9.801,25.928 9.652,25.74 9.441,25.447 9.012,25.553 8.535,25.498 8,25.287 7.84,25.205 7.762,25.061 7.762,24.846 7.84,24.471 8.066,24.272 8.441,24.248 8.199,24.061 7.961,23.94 7.719,23.885 7.293,23.807 6.785,23.819 6.199,23.928 6.121,24.592 6.078,24.94 6.078,24.967 c -0.105,0.16 -0.426,0.281 -0.957,0.359 -1.441,0.133 -2.336,0.227 -2.68,0.282 -0.64,0.105 -1.214,0.265 -1.722,0.48 -0.133,0.106 -0.227,0.199 -0.278,0.277 l -0.32,0.04 c -0.055,0.136 0.024,0.242 0.238,0.32 0.508,0.187 1.629,0.441 3.36,0.762 1.707,0.32 3.121,0.535 4.242,0.64 1.465,0.133 2.465,0.531 3,1.199 l 1.398,-3.8 c 0.055,-0.133 0.403,-0.465 1.039,-1 z M 8.48,26.127 v 1.078 C 8.238,26.994 8.055,26.819 7.922,26.686 7.68,26.471 7.535,26.272 7.48,26.088 c -0.082,-0.32 0.012,-0.48 0.282,-0.48 0.16,-0.028 0.304,0.023 0.437,0.16 0.055,0.051 0.149,0.172 0.281,0.359 z m -1.64,1.84 -3.078,-0.48 1.636,-0.879 c 0.563,-0.321 0.883,-0.481 0.961,-0.481 l 0.161,1.078 z m 17.281,-23.441 0.117,0.16 c 0.16,0.215 0.574,0.652 1.242,1.32 0.399,0.399 0.708,0.746 0.918,1.039 0.082,-0.027 0.161,-0.066 0.243,-0.117 0.371,-0.16 0.558,-0.43 0.558,-0.801 0.348,-0.055 0.895,-0.055 1.641,0 0.187,-0.027 0.305,-0.082 0.359,-0.16 0.028,-0.055 0.055,-0.094 0.078,-0.121 -0.023,0 -0.05,-0.012 -0.078,-0.039 C 28.586,5.381 28.012,5.088 27.48,4.928 26.305,4.553 25.277,4.405 24.398,4.487 c -0.078,0 -0.171,0.011 -0.277,0.039 z m -10.961,7.679 0.719,0.403 c -0.211,0.183 -0.531,0.304 -0.957,0.359 -0.402,0.082 -0.75,0.094 -1.043,0.039 -0.106,-0.32 0.027,-0.547 0.402,-0.68 0.266,-0.105 0.559,-0.148 0.879,-0.121 z"
   inkscape:connector-curvature="0" />
      <path
   id="path16"
   style="fill:#cdc9bd;fill-rule:evenodd"
   d="m 31.762,11.127 0.879,-0.562 c 0.105,-0.051 0.226,-0.106 0.359,-0.16 -0.934,0.054 -1.625,0.214 -2.078,0.484 v 0.078 c 0,0.215 0.066,0.426 0.199,0.641 z M 19.879,17.006 C 19,16.74 18.172,16.565 17.398,16.487 c 0.161,0.16 0.149,0.347 -0.039,0.558 -0.16,0.215 -0.332,0.227 -0.519,0.043 -0.215,-0.215 -0.36,-0.414 -0.442,-0.601 -0.078,0.027 -0.16,0.039 -0.238,0.039 -0.055,0.586 -0.094,1.066 -0.121,1.441 -0.027,0.641 0.039,1.105 0.199,1.398 0.11,0.188 0.297,0.348 0.563,0.481 0.133,0.055 0.347,0.133 0.64,0.242 l 0.239,-0.242 c 0.019,-0.02 0.039,-0.039 0.058,-0.059 0.192,-0.218 0.387,-0.425 0.582,-0.621 0.106,-0.105 0.227,-0.226 0.36,-0.359 0.32,-0.348 0.586,-0.668 0.8,-0.961 l 0.243,-0.238 c 0,-0.028 0.011,-0.055 0.039,-0.082 0.105,-0.161 0.238,-0.305 0.398,-0.438 z m -6.481,7.52 c -0.746,0.082 -1.359,0.214 -1.839,0.402 l 1.363,-0.043 z M 6.602,18.885 c -0.215,0.348 -0.457,0.762 -0.723,1.242 -0.348,0.774 -0.613,1.344 -0.801,1.719 -0.398,0.48 -0.68,0.867 -0.84,1.16 0,0.027 0.016,0.066 0.043,0.121 C 4.52,23.1 5.266,22.846 6.52,22.365 7.48,21.994 8.215,21.928 8.719,22.166 l 0.043,0.36 1,-1.2 C 9.68,20.791 8.625,19.979 6.602,18.885 Z M 5.199,19.725 5.16,19.768 5.02,19.967 C 5.082,19.885 5.141,19.803 5.199,19.725 Z M 13.602,9.526 h 0.078 l 1.16,-1.039 c -0.375,0.308 -0.789,0.656 -1.238,1.039 z m 0.796,-0.039 c 0.563,-0.055 1.254,-0.149 2.082,-0.282 1.305,-0.215 2.254,-0.32 2.84,-0.32 0.215,0 0.575,0.027 1.078,0.082 0.481,0 0.84,-0.055 1.082,-0.16 C 21.398,8.619 21.281,8.326 21.121,7.928 L 21.078,8.647 C 20.945,8.565 20.762,8.393 20.52,8.127 20.309,7.885 20.105,7.74 19.922,7.686 19.707,7.635 19.414,7.619 19.039,7.647 18.508,7.697 18.215,7.725 18.16,7.725 17.414,7.701 16.387,8.1 15.078,8.928 c -0.183,0.133 -0.41,0.32 -0.68,0.559 z m -2.117,4.8 h -0.562 c -0.531,0 -0.852,0.078 -0.957,0.239 -0.11,0.214 -0.055,0.453 0.16,0.722 0.211,0.239 0.426,0.399 0.637,0.477 l 0.921,-1.078 c -0.027,-0.082 -0.066,-0.133 -0.121,-0.16 -0.054,-0.055 -0.078,-0.122 -0.078,-0.2 z"
   inkscape:connector-curvature="0" />
      <path
   id="path18"
   style="fill:#e1dccf;fill-rule:evenodd"
   d="m 31.121,11.608 c -0.133,-0.215 -0.199,-0.426 -0.199,-0.641 -0.508,-0.16 -1.082,-0.215 -1.723,-0.16 -0.664,0.055 -1.066,0.215 -1.199,0.48 -0.16,0.239 -0.16,0.68 0,1.321 0.133,0.586 0.32,1.066 0.559,1.441 0.214,-0.109 0.429,-0.242 0.64,-0.402 0.215,-0.188 0.426,-0.399 0.641,-0.641 0.613,-0.719 1.039,-1.187 1.281,-1.398 z M 25.68,10.205 C 25.652,10.182 25.641,10.155 25.641,10.127 25.535,9.78 25.387,9.338 25.199,8.807 25.066,8.194 25.066,7.819 25.199,7.686 25.309,7.58 25.465,7.514 25.68,7.487 h 0.199 c 0.32,0 0.547,-0.051 0.683,-0.161 C 26.508,7.248 26.453,7.155 26.402,7.049 26.188,6.752 25.879,6.405 25.48,6.006 24.812,5.338 24.402,4.901 24.242,4.686 l -0.121,-0.16 c -0.91,0.187 -1.695,0.679 -2.359,1.48 -0.43,0.508 -0.641,1 -0.641,1.481 v 0.441 c 0.156,0.398 0.277,0.691 0.359,0.879 -0.242,0.109 -0.601,0.16 -1.082,0.16 -0.507,-0.051 -0.867,-0.078 -1.078,-0.078 -0.586,0 -1.535,0.105 -2.84,0.316 -0.828,0.133 -1.519,0.227 -2.082,0.282 -0.48,0.453 -1.054,1.105 -1.718,1.96 -0.082,0.106 -0.16,0.215 -0.242,0.321 0.96,-0.11 1.816,-0.321 2.562,-0.641 0.238,-0.109 0.84,-0.453 1.801,-1.039 0.746,-0.453 1.359,-0.723 1.84,-0.801 0.691,-0.132 1.586,0.067 2.679,0.598 1.52,0.719 2.399,1.109 2.641,1.16 0.824,0.32 1.371,0.414 1.641,0.281 0.132,-0.078 0.199,-0.254 0.199,-0.519 -0.028,-0.16 -0.067,-0.36 -0.121,-0.602 z M 4.238,23.006 4.199,23.045 c -0.238,0.402 -0.547,0.817 -0.918,1.242 -0.453,0.532 -0.734,0.84 -0.84,0.918 -0.136,0.11 -0.496,0.282 -1.082,0.52 -0.293,0.137 -0.504,0.254 -0.64,0.363 0.508,-0.215 1.082,-0.375 1.722,-0.48 0.344,-0.055 1.239,-0.149 2.68,-0.282 0.531,-0.078 0.852,-0.199 0.957,-0.359 0,-0.027 0.043,-0.375 0.121,-1.039 0.586,-0.109 1.094,-0.121 1.52,-0.043 0.242,0.055 0.48,0.176 0.722,0.363 H 8.52 c 0.265,0 0.414,0.133 0.441,0.399 v 0.039 c 0.133,0.027 0.266,0.015 0.398,-0.039 0.243,-0.055 0.414,0.039 0.52,0.281 0.082,0.266 0,0.426 -0.238,0.477 -0.055,0.027 -0.121,0.042 -0.2,0.042 0.211,0.293 0.36,0.481 0.438,0.559 0.402,0.32 0.695,0.465 0.883,0.441 0.105,0 0.371,-0.175 0.797,-0.519 l 1.363,-1.043 -1.363,0.043 c 0.48,-0.188 1.093,-0.32 1.839,-0.402 l 0.961,-0.801 -0.597,-0.238 c -0.75,-0.375 -1.535,-1 -2.364,-1.879 h -0.039 c 0,0.238 -0.132,0.359 -0.398,0.359 -0.32,0 -0.574,-0.082 -0.762,-0.242 -0.238,-0.184 -0.254,-0.41 -0.039,-0.68 0.078,-0.105 0.199,-0.199 0.36,-0.277 C 10.094,20.42 9.785,20.127 9.602,19.885 9.492,19.752 9.375,19.498 9.238,19.127 9.215,19.1 9.188,19.061 9.16,19.006 9.148,18.987 9.145,18.967 9.141,18.947 9.113,18.877 9.078,18.803 9.039,18.725 9.012,18.701 9,18.674 9,18.647 8.762,18.194 8.535,17.862 8.32,17.647 8.238,17.592 8.012,17.514 7.641,17.405 L 7.52,17.447 c -0.051,0.051 -0.094,0.094 -0.122,0.118 -0.183,0.215 -0.453,0.656 -0.796,1.32 2.023,1.094 3.078,1.906 3.16,2.441 l -1,1.2 -0.043,-0.36 C 8.215,21.928 7.48,21.994 6.52,22.365 5.266,22.846 4.52,23.1 4.281,23.127 4.254,23.072 4.238,23.033 4.238,23.006 Z m 12.922,-6.918 -0.039,0.078 v 0.039 c 0,0.028 0.078,0.121 0.238,0.282 h 0.039 c 0.774,0.078 1.602,0.253 2.481,0.519 -1.172,-0.453 -2.078,-0.758 -2.719,-0.918 z m -5.281,0.039 c 0.027,0 0.055,-0.015 0.082,-0.039 -0.106,-0.082 -0.176,-0.187 -0.199,-0.32 -0.055,-0.27 0.05,-0.414 0.316,-0.442 0.242,-0.027 0.402,0.055 0.481,0.239 H 12.48 l 0.079,0.082 v -0.082 c 0.16,0.054 0.253,0.16 0.281,0.32 0.187,-0.051 0.305,-0.094 0.359,-0.117 0.961,-0.321 1.426,-0.68 1.403,-1.082 v -0.121 c -0.028,-0.106 -0.067,-0.2 -0.122,-0.278 -0.132,-0.16 -0.375,-0.293 -0.718,-0.402 -0.028,0 -0.055,-0.012 -0.082,-0.039 -0.106,0.082 -0.2,0.16 -0.282,0.242 -0.078,0.078 -0.144,0.117 -0.199,0.117 0.106,0.266 0.106,0.563 0,0.883 -0.078,0.238 -0.238,0.305 -0.48,0.199 -0.239,-0.105 -0.321,-0.293 -0.239,-0.562 v -0.078 l -0.921,1.078 c -0.211,-0.078 -0.426,-0.238 -0.637,-0.477 -0.215,-0.269 -0.27,-0.508 -0.16,-0.722 0.105,-0.161 0.426,-0.239 0.957,-0.239 h 0.562 c -0.054,-0.132 0,-0.254 0.16,-0.359 0.079,-0.055 0.161,-0.082 0.239,-0.082 v -0.039 c -0.239,0.027 -0.508,0.066 -0.801,0.121 -0.906,0.16 -1.465,0.371 -1.68,0.637 -0.238,0.242 -0.387,0.695 -0.437,1.363 l 1.039,0.277 c 0.054,-0.078 0.16,-0.105 0.32,-0.078 0.16,0 0.277,0.039 0.359,0.121 0.133,-0.054 0.266,-0.093 0.399,-0.121 z m 4.519,0.36 c -0.078,-0.161 -0.105,-0.332 -0.078,-0.52 -0.187,0.027 -0.32,0.066 -0.398,0.121 -0.297,0.211 -0.535,0.531 -0.723,0.957 -0.16,0.426 -0.105,0.922 0.16,1.481 0.293,0.695 0.442,1.214 0.442,1.562 0.719,0.078 1.226,0.117 1.519,0.117 0.051,-0.023 0.094,-0.066 0.118,-0.117 -0.293,-0.109 -0.504,-0.187 -0.637,-0.242 -0.27,-0.133 -0.457,-0.293 -0.563,-0.481 -0.16,-0.293 -0.226,-0.757 -0.199,-1.398 0.027,-0.375 0.066,-0.852 0.121,-1.441 0.078,0 0.16,-0.012 0.238,-0.039 z m -4.636,6.238 c 0.078,0.375 -0.16,0.562 -0.723,0.562 -0.238,0.028 -0.344,-0.093 -0.32,-0.359 l -0.52,0.078 -0.238,0.082 c 0.027,0.051 0.094,0.106 0.199,0.16 0.215,0.133 0.238,0.305 0.078,0.52 -0.16,0.211 -0.343,0.254 -0.558,0.117 -0.535,-0.348 -0.719,-0.703 -0.559,-1.078 0.16,-0.32 0.52,-0.535 1.078,-0.641 0.535,-0.051 0.934,-0.027 1.199,0.082 0.215,0.157 0.336,0.317 0.364,0.477 z M 0.078,26.405 H 0.039 C 0.121,26.326 0.441,26.033 1,25.526 1.105,25.408 1.215,25.291 1.32,25.166 L 0.879,25.608 C 0.348,26.088 0.055,26.365 0,26.447 0.027,26.42 0.051,26.408 0.078,26.405 Z M 6.602,17.768 H 6.559 l -1.399,2 0.039,-0.043 C 5.68,19.033 6.145,18.381 6.602,17.768 Z m 4.878,-6.16 -0.121,0.117 -0.16,0.16 h 0.039 c 0.082,-0.078 0.16,-0.172 0.242,-0.277 z m 2.2,-2.082 h -0.078 l -0.481,0.48 C 13.309,9.83 13.496,9.67 13.68,9.526 Z M 23.52,3.725 C 23.277,3.912 23.055,4.1 22.84,4.287 L 23.121,4.088 C 23.254,3.979 23.387,3.862 23.52,3.725 Z"
   inkscape:connector-curvature="0" />
      <path
   id="path20"
   style="fill:#8d8468;fill-rule:evenodd"
   d="m 18.078,14.846 c 0.027,-0.106 -0.023,-0.215 -0.156,-0.32 -0.215,-0.188 -0.414,-0.188 -0.602,0 -0.215,0.214 -0.375,0.375 -0.48,0.48 -0.106,0.133 -0.172,0.215 -0.199,0.242 -0.082,0.106 -0.172,0.317 -0.282,0.637 -0.027,0.027 -0.039,0.055 -0.039,0.082 -0.027,0.188 0,0.359 0.078,0.52 0.082,0.187 0.227,0.386 0.442,0.601 0.187,0.184 0.359,0.172 0.519,-0.043 0.188,-0.211 0.2,-0.398 0.039,-0.558 h -0.039 c -0.16,-0.161 -0.238,-0.254 -0.238,-0.282 v -0.039 l 0.039,-0.078 v -0.16 c 0.078,-0.188 0.348,-0.481 0.801,-0.883 0.051,-0.051 0.094,-0.117 0.117,-0.199 z m 1,-0.078 c 0.027,0.027 0.055,0.051 0.082,0.078 0.188,0.16 0.348,0.133 0.481,-0.078 0,-0.028 0.015,-0.043 0.039,-0.043 0.109,-0.16 0.121,-0.305 0.043,-0.438 L 20,14.248 c 0.266,0 0.414,-0.136 0.441,-0.402 0.024,-0.266 -0.093,-0.399 -0.363,-0.399 -0.531,0 -0.906,0.09 -1.117,0.278 -0.293,0.32 -0.254,0.668 0.117,1.043 z m -3.117,-2.602 c 0.426,-0.16 0.719,-0.414 0.879,-0.761 0.082,-0.239 -0.012,-0.399 -0.281,-0.477 -0.028,0 -0.039,-0.016 -0.039,-0.043 -0.215,0 -0.375,0.109 -0.481,0.32 -0.051,0.11 -0.184,0.188 -0.398,0.242 -0.243,0.079 -0.321,0.239 -0.243,0.481 0.082,0.266 0.243,0.359 0.481,0.277 0.027,0 0.055,-0.011 0.082,-0.039 z m 4.879,0.36 c -0.106,0.265 -0.094,0.535 0.039,0.8 0.109,0.239 0.281,0.309 0.519,0.2 0.243,-0.106 0.309,-0.278 0.204,-0.52 l -0.043,-0.117 c 0.269,-0.027 0.375,-0.176 0.32,-0.442 -0.027,-0.265 -0.172,-0.375 -0.441,-0.32 -0.29,0.028 -0.493,0.16 -0.598,0.399 z m 1.359,-1.039 c -0.027,0.05 -0.039,0.105 -0.039,0.16 v 0.039 c -0.055,0.054 -0.105,0.121 -0.16,0.199 -0.16,0.242 -0.133,0.43 0.078,0.562 0.215,0.133 0.469,0.2 0.762,0.2 0.215,0 0.348,-0.094 0.398,-0.282 h 0.043 c 0.266,-0.027 0.371,-0.16 0.321,-0.398 V 11.885 C 23.547,11.67 23.398,11.565 23.16,11.565 L 23,11.604 c -0.027,-0.157 -0.148,-0.25 -0.359,-0.278 -0.215,-0.027 -0.36,0.028 -0.442,0.161 z m -6.918,1.8 c 0.16,0.184 0.239,0.348 0.239,0.481 0.027,0.265 0.16,0.371 0.402,0.32 0.266,-0.055 0.383,-0.203 0.359,-0.441 0,-0.266 -0.093,-0.492 -0.281,-0.68 -0.16,-0.242 -0.238,-0.375 -0.238,-0.402 v -0.039 c -0.028,-0.239 -0.176,-0.332 -0.442,-0.278 -0.265,0.051 -0.386,0.211 -0.359,0.477 0.027,0.16 0.117,0.336 0.277,0.523 z m -2.801,1.36 v 0.078 c -0.082,0.269 0,0.457 0.239,0.562 0.242,0.106 0.402,0.039 0.48,-0.199 0.106,-0.32 0.106,-0.617 0,-0.883 0.055,0 0.121,-0.039 0.199,-0.117 0.082,-0.082 0.176,-0.16 0.282,-0.242 0.16,-0.133 0.281,-0.16 0.359,-0.082 0.215,0.16 0.402,0.137 0.563,-0.078 0.183,-0.215 0.171,-0.399 -0.043,-0.559 -0.504,-0.402 -1.094,-0.242 -1.758,0.477 -0.082,0.082 -0.121,0.148 -0.121,0.203 v 0.039 c -0.078,0 -0.16,0.027 -0.239,0.082 -0.16,0.105 -0.214,0.227 -0.16,0.359 0,0.078 0.024,0.145 0.078,0.2 0.055,0.027 0.094,0.078 0.121,0.16 z m -1.718,2.039 c 0,0.054 0.023,0.094 0.078,0.121 -0.106,0 -0.188,0.027 -0.238,0.078 -0.055,0.027 -0.11,0.082 -0.161,0.16 v 0.043 c -0.082,0.184 -0.121,0.383 -0.121,0.598 0,0.133 0.028,0.226 0.078,0.281 h -0.16 c -0.426,0.055 -0.73,0.148 -0.918,0.281 -0.054,0.051 -0.093,0.106 -0.121,0.157 -0.078,0.109 -0.105,0.242 -0.078,0.402 0,0.047 0.004,0.094 0.02,0.14 0.004,0.02 0.007,0.04 0.019,0.059 0.028,0.055 0.051,0.094 0.078,0.121 0.055,0.106 0.137,0.188 0.242,0.238 0.133,0.055 0.375,0.082 0.719,0.082 0.266,-0.027 0.387,-0.175 0.36,-0.441 0,-0.105 -0.028,-0.187 -0.079,-0.238 0.188,-0.055 0.254,-0.188 0.2,-0.403 0,-0.128 -0.035,-0.234 -0.102,-0.32 0.024,0.027 0.055,0.043 0.102,0.043 0.265,0.024 0.414,-0.094 0.441,-0.363 l 0.078,-0.438 c 0.082,-0.105 0.094,-0.199 0.039,-0.281 0.27,0.027 0.403,-0.094 0.403,-0.359 0,-0.188 -0.055,-0.321 -0.161,-0.399 -0.082,-0.082 -0.199,-0.121 -0.359,-0.121 -0.16,-0.027 -0.266,0 -0.32,0.078 -0.055,0.082 -0.082,0.176 -0.082,0.282 0,0.078 0.015,0.144 0.043,0.199 z M 25.68,10.205 c 0.054,0.242 0.093,0.442 0.121,0.602 0.078,0.055 0.187,0.082 0.32,0.082 0.266,0.023 0.414,-0.094 0.438,-0.363 0,-0.133 -0.012,-0.227 -0.039,-0.278 v -0.043 l 0.039,-0.32 c 0.109,-0.32 0.175,-0.48 0.203,-0.48 0.211,-0.106 0.265,-0.278 0.16,-0.52 -0.11,-0.238 -0.281,-0.305 -0.524,-0.199 -0.105,0.054 -0.199,0.121 -0.277,0.199 -0.082,0.082 -0.148,0.187 -0.199,0.32 -0.055,0.321 -0.11,0.559 -0.16,0.719 -0.055,0.109 -0.082,0.203 -0.082,0.281 z M 9.441,25.447 c 0.079,0 0.145,-0.015 0.2,-0.042 0.238,-0.051 0.32,-0.211 0.238,-0.477 C 9.773,24.686 9.602,24.592 9.359,24.647 9.227,24.701 9.094,24.713 8.961,24.686 V 24.647 C 8.934,24.381 8.785,24.248 8.52,24.248 H 8.441 c -0.375,0.024 -0.601,0.223 -0.679,0.598 0,0.215 0.078,0.359 0.238,0.441 0.535,0.211 1.012,0.266 1.441,0.16 z m 2.321,-2.722 c -0.028,-0.16 -0.149,-0.32 -0.364,-0.477 -0.265,-0.109 -0.664,-0.136 -1.199,-0.082 -0.558,0.106 -0.918,0.321 -1.078,0.641 -0.16,0.375 0.024,0.734 0.559,1.078 0.215,0.137 0.398,0.094 0.558,-0.117 0.16,-0.215 0.137,-0.387 -0.078,-0.52 -0.105,-0.054 -0.172,-0.109 -0.199,-0.16 l 0.238,-0.082 0.52,-0.078 c -0.024,0.266 0.082,0.387 0.32,0.359 0.563,0 0.801,-0.187 0.723,-0.562 z m -0.364,-1.117 c 0.055,0 0.11,-0.016 0.161,-0.043 0.082,-0.024 0.136,-0.106 0.16,-0.239 0.082,-0.238 0,-0.414 -0.239,-0.519 -0.214,-0.106 -0.453,-0.149 -0.718,-0.121 -0.11,0.027 -0.188,0.054 -0.242,0.082 -0.161,0.078 -0.282,0.172 -0.36,0.277 -0.215,0.27 -0.199,0.496 0.039,0.68 0.188,0.16 0.442,0.242 0.762,0.242 0.266,0 0.398,-0.121 0.398,-0.359 z m 0.161,-1.641 c -0.028,0.266 0.136,0.48 0.48,0.641 0.242,0.105 0.402,0.023 0.481,-0.243 0,-0.027 0.015,-0.066 0.039,-0.117 l 0.043,0.157 c 0.078,0.242 0.238,0.308 0.476,0.203 0.242,-0.11 0.32,-0.282 0.242,-0.52 -0.187,-0.562 -0.601,-0.773 -1.242,-0.641 -0.238,0.051 -0.41,0.227 -0.519,0.52 z m 1.281,-4.082 c -0.028,-0.16 -0.121,-0.266 -0.281,-0.32 v 0.082 L 12.48,15.565 h 0.079 c -0.079,-0.184 -0.239,-0.266 -0.481,-0.239 -0.266,0.028 -0.371,0.172 -0.316,0.442 0.023,0.133 0.093,0.238 0.199,0.32 0.105,0.133 0.25,0.227 0.437,0.277 0.243,0.055 0.375,-0.05 0.403,-0.32 0.027,-0.051 0.039,-0.105 0.039,-0.16 z M 27.121,8.608 c -0.027,0.265 0.078,0.398 0.317,0.398 0.269,0.027 0.414,-0.078 0.441,-0.32 C 27.906,8.608 28,8.541 28.16,8.487 c 0.238,0 0.375,-0.133 0.399,-0.399 0.027,-0.269 -0.094,-0.387 -0.36,-0.363 -0.691,0 -1.051,0.293 -1.078,0.883 z"
   inkscape:connector-curvature="0" />
      <path
   id="path22"
   style="fill:#f5f0e1;fill-rule:evenodd"
   d="m 15.961,12.166 c -0.055,0.133 -0.121,0.254 -0.199,0.36 v 0.039 c 0,0.027 0.078,0.16 0.238,0.402 0.188,0.188 0.281,0.414 0.281,0.68 0.024,0.242 -0.093,0.386 -0.359,0.441 -0.242,0.051 -0.375,-0.055 -0.402,-0.32 0,-0.133 -0.079,-0.293 -0.239,-0.481 -0.136,0.16 -0.402,0.493 -0.801,1 0.051,0.078 0.094,0.172 0.122,0.282 0.023,0.027 0.05,0.05 0.078,0.078 0.082,0.082 0.281,0.175 0.601,0.281 0.184,0.187 0.293,0.277 0.321,0.277 l 0.718,-0.117 c 0.188,-0.027 0.36,-0.055 0.52,-0.082 0.105,-0.105 0.265,-0.266 0.48,-0.48 0.188,-0.184 0.387,-0.184 0.602,0 0.133,0.109 0.183,0.214 0.156,0.32 0.348,-0.024 0.684,-0.051 1,-0.078 -0.371,-0.375 -0.41,-0.719 -0.117,-1.039 0.215,-0.188 0.586,-0.282 1.117,-0.282 0.27,0 0.387,0.133 0.363,0.399 -0.027,0.269 -0.175,0.402 -0.441,0.402 l -0.281,0.039 c 0.082,0.133 0.066,0.282 -0.039,0.442 1.281,-0.11 2.242,-0.149 2.879,-0.121 l 4.718,-1.403 c -0.05,-0.078 -0.078,-0.183 -0.078,-0.316 -0.027,-0.137 -0.066,-0.227 -0.121,-0.281 -0.051,-0.082 -0.183,-0.149 -0.398,-0.203 -0.133,-0.051 -0.332,-0.079 -0.602,-0.079 -0.957,-0.132 -1.785,-0.281 -2.48,-0.441 v 0.082 c 0.054,0.238 -0.051,0.371 -0.321,0.398 h -0.039 c -0.05,0.188 -0.183,0.282 -0.398,0.282 -0.293,0 -0.547,-0.067 -0.762,-0.2 -0.211,-0.132 -0.238,-0.32 -0.078,-0.558 0.051,-0.082 0.105,-0.149 0.16,-0.203 v -0.039 c 0,-0.055 0.012,-0.106 0.039,-0.16 -0.828,-0.266 -1.465,-0.598 -1.922,-1 l -0.238,-0.161 -0.238,-0.121 c -0.215,-0.05 -0.547,-0.078 -1,-0.078 -0.508,0.055 -0.856,0.078 -1.043,0.078 H 16.68 c -0.055,0.242 -0.106,0.469 -0.16,0.684 0,0.027 0.011,0.039 0.039,0.039 0.265,0.078 0.359,0.238 0.281,0.48 -0.16,0.344 -0.453,0.598 -0.879,0.758 z m 4.879,0.36 c 0.105,-0.239 0.308,-0.371 0.601,-0.399 0.266,-0.055 0.414,0.051 0.438,0.32 0.055,0.266 -0.051,0.415 -0.317,0.438 l 0.04,0.121 c 0.105,0.242 0.039,0.414 -0.204,0.52 -0.238,0.105 -0.41,0.039 -0.519,-0.2 -0.133,-0.265 -0.145,-0.535 -0.039,-0.8 z m -10.238,4.359 c 0.05,-0.051 0.132,-0.078 0.238,-0.078 -0.051,-0.027 -0.078,-0.067 -0.078,-0.121 -0.082,0.082 -0.137,0.148 -0.16,0.199 z m -1.461,2.062 c -0.016,-0.046 -0.02,-0.093 -0.02,-0.14 -0.027,-0.16 0,-0.293 0.078,-0.402 -0.078,0.082 -0.144,0.16 -0.199,0.242 0,0.027 0.012,0.054 0.039,0.078 0.039,0.078 0.074,0.152 0.102,0.222 z M 9.32,18.248 c 0.188,-0.136 0.492,-0.226 0.918,-0.281 h 0.16 c -0.05,-0.055 -0.078,-0.148 -0.078,-0.281 0,-0.215 0.039,-0.414 0.121,-0.598 -0.136,0.16 -0.203,0.25 -0.203,0.277 -0.371,0.348 -0.664,0.629 -0.879,0.84 z m 2.559,-2.121 c -0.133,0.028 -0.266,0.067 -0.399,0.121 0.106,0.078 0.161,0.211 0.161,0.399 0,0.265 -0.133,0.386 -0.403,0.359 0.055,0.082 0.043,0.176 -0.039,0.281 l -0.078,0.438 c -0.027,0.269 -0.176,0.387 -0.441,0.363 -0.047,0 -0.078,-0.016 -0.102,-0.043 0.067,0.086 0.102,0.192 0.102,0.32 0.054,0.215 -0.012,0.348 -0.2,0.403 0.051,0.051 0.079,0.133 0.079,0.238 0.027,0.266 -0.094,0.414 -0.36,0.441 -0.344,0 -0.586,-0.027 -0.719,-0.082 -0.105,-0.05 -0.187,-0.132 -0.242,-0.238 0.137,0.371 0.254,0.625 0.364,0.758 0.183,0.242 0.492,0.535 0.918,0.883 0.054,-0.028 0.132,-0.055 0.242,-0.082 0.265,-0.028 0.504,0.015 0.718,0.121 0.239,0.105 0.321,0.281 0.239,0.519 -0.024,0.133 -0.078,0.215 -0.16,0.239 0.347,0.242 0.679,0.429 1,0.562 L 15.48,19.405 C 15.215,19.006 14.707,18.487 13.961,17.846 13.078,17.045 12.387,16.471 11.879,16.127 Z M 26.398,7.045 c 0.055,0.11 0.11,0.203 0.161,0.281 -0.133,0.106 -0.36,0.161 -0.68,0.161 H 25.68 c 0.132,0.293 0.254,0.679 0.359,1.16 0.027,0.078 0.055,0.16 0.082,0.238 0.078,-0.078 0.172,-0.145 0.277,-0.199 0.243,-0.106 0.414,-0.039 0.524,0.199 0.105,0.242 0.051,0.414 -0.16,0.52 -0.028,0 -0.094,0.16 -0.203,0.48 l -0.039,0.32 v 0.043 l 0.359,-0.043 H 31.16 L 33.078,9.088 C 32.629,8.553 32.188,8.061 31.762,7.604 V 7.565 l -1,-0.637 c -0.668,-0.481 -1.16,-0.84 -1.485,-1.082 -0.023,0.027 -0.05,0.066 -0.078,0.121 -0.054,0.078 -0.172,0.133 -0.359,0.16 -0.746,-0.055 -1.293,-0.055 -1.641,0 0,0.371 -0.187,0.637 -0.558,0.797 -0.082,0.055 -0.161,0.094 -0.243,0.121 z M 8.48,26.127 C 8.348,25.94 8.254,25.819 8.199,25.768 8.066,25.631 7.922,25.58 7.762,25.608 c -0.27,0 -0.364,0.16 -0.282,0.48 0.055,0.184 0.2,0.383 0.442,0.598 0.133,0.133 0.316,0.308 0.558,0.519 z m 3.079,-6.16 c 0.109,-0.293 0.281,-0.469 0.519,-0.52 0.641,-0.132 1.055,0.079 1.242,0.641 0.078,0.238 0,0.41 -0.242,0.52 -0.238,0.105 -0.398,0.039 -0.476,-0.203 l -0.043,-0.157 c -0.028,0.051 -0.039,0.09 -0.039,0.117 -0.079,0.266 -0.239,0.348 -0.481,0.243 -0.344,-0.161 -0.504,-0.375 -0.48,-0.641 z m -4.719,8 -0.32,-0.762 -0.161,-1.078 c -0.078,0 -0.398,0.16 -0.961,0.481 L 3.762,27.487 Z M 30.199,6.127 C 30.055,6.014 29.922,5.905 29.801,5.807 h -0.039 c 0.14,0.101 0.285,0.207 0.437,0.32 z M 13.16,12.205 c -0.32,-0.023 -0.613,0.016 -0.879,0.121 -0.375,0.133 -0.508,0.36 -0.402,0.68 0.293,0.055 0.641,0.043 1.043,-0.039 0.426,-0.055 0.746,-0.176 0.957,-0.359 z M 27.121,8.608 c 0.024,-0.586 0.387,-0.883 1.078,-0.883 0.266,-0.024 0.387,0.094 0.36,0.363 -0.024,0.266 -0.161,0.399 -0.399,0.399 -0.16,0.054 -0.254,0.121 -0.281,0.199 -0.024,0.242 -0.172,0.347 -0.438,0.32 -0.242,0 -0.347,-0.133 -0.32,-0.398 z"
   inkscape:connector-curvature="0" />
      <path
   id="path24"
   style="fill:#fdf7e6;fill-rule:evenodd"
   d="m 4.238,23.006 c 0.16,-0.293 0.442,-0.68 0.84,-1.16 0.188,-0.375 0.453,-0.945 0.801,-1.719 0.266,-0.48 0.508,-0.894 0.723,-1.242 0.343,-0.664 0.613,-1.105 0.796,-1.32 L 7.52,17.447 c 0.746,-0.882 1.64,-1.867 2.679,-2.96 0.563,-0.586 1.309,-1.493 2.242,-2.719 0.079,-0.11 0.161,-0.215 0.239,-0.321 0.668,-0.855 1.242,-1.507 1.718,-1.96 0.27,-0.239 0.497,-0.426 0.68,-0.559 1.309,-0.828 2.336,-1.227 3.082,-1.199 0.051,0 0.348,-0.028 0.879,-0.082 0.375,-0.028 0.668,-0.012 0.883,0.039 0.183,0.054 0.387,0.203 0.598,0.441 0.242,0.266 0.425,0.442 0.558,0.52 L 21.121,7.928 V 7.487 c 0,-0.481 0.215,-0.973 0.641,-1.481 0.664,-0.801 1.453,-1.293 2.359,-1.48 0.106,-0.028 0.199,-0.039 0.281,-0.039 0.879,-0.082 1.907,0.066 3.078,0.441 0.536,0.16 1.11,0.453 1.719,0.879 0.028,0.027 0.055,0.039 0.082,0.039 0.321,0.242 0.813,0.601 1.481,1.082 l 1,0.641 C 31.336,7.151 30.926,6.764 30.523,6.408 L 30.363,6.248 30.199,6.127 C 30.047,6.014 29.902,5.908 29.762,5.807 29.625,5.701 29.492,5.608 29.359,5.526 28.375,4.862 27.145,4.326 25.68,3.928 L 23.762,3.526 23.641,3.647 C 23.586,3.674 23.547,3.697 23.52,3.725 23.387,3.862 23.254,3.979 23.121,4.088 L 22.84,4.287 C 21.961,4.928 21.121,5.459 20.32,5.885 20.266,5.912 20.215,5.94 20.16,5.967 l -1.398,0.559 c -0.856,0.265 -1.574,0.535 -2.16,0.8 -0.293,0.133 -0.563,0.282 -0.801,0.442 -0.028,0 -0.039,0.012 -0.039,0.039 C 15.547,7.94 15.309,8.115 15.039,8.326 14.977,8.377 14.91,8.432 14.84,8.487 l -1.16,1.039 c -0.184,0.144 -0.371,0.304 -0.559,0.48 l -0.199,0.199 c -0.133,0.11 -0.254,0.215 -0.36,0.321 -0.027,0.027 -0.054,0.039 -0.082,0.039 L 12,11.045 c -0.172,0.195 -0.348,0.383 -0.52,0.559 -0.082,0.109 -0.16,0.203 -0.242,0.281 -0.183,0.187 -0.359,0.375 -0.519,0.562 L 6.602,17.768 C 6.145,18.381 5.68,19.033 5.199,19.725 5.141,19.803 5.082,19.885 5.02,19.967 L 3.48,22.248 C 3.375,22.405 3.266,22.565 3.16,22.725 3.027,22.912 2.906,23.1 2.801,23.287 l -0.403,0.52 c -0.039,0.055 -0.078,0.105 -0.117,0.16 -0.051,0.07 -0.097,0.137 -0.14,0.199 -0.079,0.098 -0.153,0.192 -0.219,0.281 -0.078,0.098 -0.16,0.188 -0.242,0.278 -0.016,0.023 -0.039,0.043 -0.059,0.062 -0.019,0.024 -0.039,0.051 -0.062,0.078 l -0.161,0.223 c -0.023,0.024 -0.05,0.051 -0.078,0.078 -0.105,0.125 -0.215,0.242 -0.32,0.36 -0.559,0.507 -0.879,0.8 -0.961,0.879 h 0.082 l 0.32,-0.04 c 0.051,-0.078 0.145,-0.171 0.278,-0.277 0.136,-0.109 0.347,-0.226 0.64,-0.363 0.586,-0.238 0.946,-0.41 1.082,-0.52 0.106,-0.078 0.387,-0.386 0.84,-0.918 0.371,-0.429 0.68,-0.84 0.918,-1.242 z"
   inkscape:connector-curvature="0" />
      <g
   id="g26">
        <g
   id="g28"
   clip-path="url(#clipPath30)">
          <g
   id="g34"
   transform="matrix(0.8,0,0,0.8,0,-0.43361)">
            <g
   id="g56"
   mask="url(#mask48)">
              <path
   id="path64"
   style="fill:url(#radialGradient58);fill-rule:evenodd"
   d="M 22.84,4.287 C 23.055,4.1 23.281,3.912 23.52,3.725 23.547,3.701 23.586,3.674 23.641,3.647 l 0.121,-0.121 1.918,0.402 c 1.465,0.398 2.691,0.934 3.679,1.598 0.133,0.082 0.266,0.175 0.403,0.281 h 0.039 c 0.121,0.098 0.254,0.207 0.398,0.32 l 0.16,0.121 0.161,0.157 c 0.402,0.355 0.816,0.742 1.242,1.16 l 0.16,0.16 C 32.371,7.487 32.895,7.233 33.48,6.967 33,5.365 32.027,4.233 30.559,3.565 29.652,3.139 28.547,2.565 27.238,1.846 26.199,1.26 24.945,0.713 23.48,0.205 23.055,0.045 22.746,-0.021 22.562,0.006 22.242,0.061 21.879,0.26 21.48,0.604 21.055,1.006 20.746,1.287 20.562,1.447 19.945,1.764 19.508,2.018 19.242,2.205 18.789,2.526 18.027,3.221 16.961,4.287 16.586,4.658 16.176,5.155 15.723,5.768 L 14.562,7.287 C 14.32,7.58 13.52,8.432 12.16,9.846 c -0.531,0.691 -0.972,1.187 -1.32,1.48 l -0.801,0.762 c -0.477,0.531 -1.105,1.383 -1.879,2.559 -0.773,1.172 -1.387,2.011 -1.84,2.519 -0.531,0.399 -0.906,0.735 -1.121,1 -0.371,0.668 -0.679,1.149 -0.918,1.442 -0.64,0.691 -1.015,1.093 -1.121,1.199 -0.64,0.48 -1.148,0.879 -1.519,1.199 -0.668,0.559 -1.067,1.027 -1.2,1.399 0.161,0.082 0.387,0.148 0.68,0.203 0.348,0.05 0.586,0.105 0.719,0.16 0.105,0.023 0.254,0.094 0.441,0.199 0.039,-0.055 0.078,-0.105 0.117,-0.16 l 0.403,-0.52 C 2.906,23.1 3.027,22.912 3.16,22.725 c 0.106,-0.16 0.215,-0.32 0.32,-0.477 l 1.54,-2.281 0.14,-0.199 1.399,-2 h 0.043 l 4.117,-5.321 c 0.16,-0.187 0.336,-0.375 0.519,-0.562 h -0.039 l 0.16,-0.16 0.121,-0.117 c 0.172,-0.18 0.348,-0.368 0.52,-0.559 l 0.48,-0.484 c 0.028,0 0.051,-0.012 0.079,-0.039 0.109,-0.106 0.226,-0.211 0.363,-0.321 l 0.68,-0.679 c 0.449,-0.383 0.863,-0.731 1.238,-1.039 0.07,-0.055 0.137,-0.11 0.199,-0.161 0.266,-0.214 0.508,-0.386 0.723,-0.519 0,-0.027 0.011,-0.039 0.039,-0.039 0.238,-0.16 0.504,-0.309 0.801,-0.442 0.586,-0.265 1.304,-0.535 2.16,-0.8 L 20.16,5.967 C 20.211,5.94 20.266,5.912 20.32,5.885 21.121,5.459 21.961,4.928 22.84,4.287 Z"
   inkscape:connector-curvature="0" />
            </g>
          </g>
        </g>
      </g>
    </g>
  </g>
<metadata
   id="metadata30"><rdf:RDF><cc:Work><dc:format>image/svg+xml</dc:format><dc:type
         rdf:resource="http://purl.org/dc/dcmitype/StillImage" /><cc:license
         rdf:resource="http://creativecommons.org/publicdomain/zero/1.0/" /><dc:publisher><cc:Agent
           rdf:about="http://openclipart.org/"><dc:title>Openclipart</dc:title></cc:Agent></dc:publisher><dc:title></dc:title></cc:Work><cc:License
       rdf:about="http://creativecommons.org/publicdomain/zero/1.0/"><cc:permits
         rdf:resource="http://creativecommons.org/ns#Reproduction" /><cc:permits
         rdf:resource="http://creativecommons.org/ns#Distribution" /><cc:permits
         rdf:resource="http://creativecommons.org/ns#DerivativeWorks" /></cc:License></rdf:RDF></metadata></svg>